General                          : ChattChitto RG - Movies

Complete name                    : Alice In Wonderland 2010 BRRip.mp4
Format                           : MPEG-4
Format profile                   : Base Media
Codec ID                         : isom
File size                        : 2.02 GiB
Duration                         : 1h 48mn
Overall bit rate                 : 2 658 Kbps
Encoded date                     : UTC 2010-05-13 01:51:12

Video
==========
ID                               : 1
Format                           : AVC
Format/Info                      : Advanced Video Codec
Format profile                   : High@L3.1
Format settings, CABAC           : Yes
Format settings, ReFrames        : 3 frames
Codec ID                         : avc1
Codec ID/Info                    : Advanced Video Coding
Duration                         : 1h 48mn
Bit rate mode                    : Variable
Bit rate                         : 2 300 Kbps
Maximum bit rate                 : 11.8 Mbps
Width                            : 1 280 pixels
Height                           : 720 pixels
Display aspect ratio             : 16:9
Frame rate mode                  : Constant
Frame rate                       : 23.976 fps
Resolution                       : 8 bits
Colorimetry                      : 4:2:0
Scan type                        : Progressive
Bits/(Pixel*Frame)               : 0.104
Stream size                      : 1.74 GiB (87%)
Writing library                  : x264 core 76 r1271 496d79d
Encoded date                     : UTC 2010-05-13 01:47:06

Audio
==========
ID                               : 2
Format                           : AAC
Format/Info                      : Advanced Audio Codec
Format version                   : Version 4
Format profile                   : LC
Format settings, SBR             : No
Codec ID                         : 40
Duration                         : 1h 48mn
Bit rate mode                    : Variable
Bit rate                         : 352.8 Kbps
Maximum bit rate                 : 504 Kbps
Channel(s)                       : 6 channels
Channel positions                : Front: L C R, Side: L R, LFE
Sampling rate                    : 48.0 KHz
Stream size                      : 275 MiB (13%)
Encoded date                     : UTC 2010-05-13 01:52:14

Subtitles                        : English | Dutch | French



----------------------------------------------------
IMDB Link: http://www.imdb.com/title/tt1014759/
----------------------------------------------------


Screen Shots:
============== 
http://bayimg.com/KaMNgAaCK 
http://bayimg.com/KaMnFaaCK 
http://bayimg.com/kAmnDaAcK 
http://bayimg.com/kAmnCAACK 
http://bayimg.com/kaMNbAaCK



Plot:
======
19-year-old Alice returns to the whimsical world she first encountered as a young girl, reuniting with her childhood friends: the White Rabbit, Tweedledee and Tweedledum, the Dormouse, the Caterpillar, the Cheshire Cat, and of course, the Mad Hatter. Alice embarks on a fantastical journey to find her true destiny and end the Red Queen's reign of terror.




Release Info:
==============
original name .... : Alice In Wonderland 2010 BRRip.mp4
ripper.............: CBGB
encoder............: Recalled2Life (R2L)
video codec........: H264/.MP4                   
video bitrate......: 2300 Kbps                           
audio codec........: AAC-LC	                                        
aspect ratio.......: 16:9 | 1:78.1                              
resolution.........: 1280 x 720                             
genre..............: Adventure | Family | Fantasy          
runtime............: 1h 48mn
language...........: English
rating.............: PG                             
subtitles..........: English | Dutch | French
sample.............: Yes [9.20 MB]
2ch Audio..........: 2ch Audio for XBox Viewers  
Compatibility .....: XBox 360 | PS3 | WD Live 



Source:
========
Alice in Wonderland 1080p Bluray x264-CBGB [7.95 GB]


Notes:
=======
ChattChitto RG Encourages Burning this Film with ConvertXtoDVD.
XBox 360 | PS3 | WD Live - Compatible
Enhanced and Filtered for your viewing pleasure ;)